# xmcd
#
# Track frame offsets:
# 150
# 13247
# 26150
# 36728
# 51952
# 67972
# 85580
# 94846
# 112725
# 125290
# 138070
# 147223
# 163081
# 173298
#
# Disc length: 2446 seconds
#
#
# Revision: 1
# Processed by: cddbd v1.5.1PL0 Copyright (c) Steve Scherf et al.
# Submitted via: FreeRIP 2.80 
#
DISCID=b2098c0e
DTITLE=Tinoco - Canta sucessos de Tonico e Tinoco
DYEAR=1900
DGENRE=Country
TTITLE0=Moreninha linda
TTITLE1=O menino da porteira
TTITLE2=Cana verde
TTITLE3=Beijinho doce
TTITLE4=Pinga ni mim
TTITLE5=Chico mineiro
TTITLE6=Na beira da tuia
TTITLE7=Chuá chuá
TTITLE8=Caipirinha do arraiá
TTITLE9=Tristeza do Jeca
TTITLE10=Bailão gaúcho
TTITLE11=Luar do Sertão
TTITLE12=Festa na Roça
TTITLE13=Vira prá cá, vira prá lá
EXTD=ID3G: 2
EXTT0=
EXTT1=
EXTT2=
EXTT3=
EXTT4=
EXTT5=
EXTT6=
EXTT7=
EXTT8=
EXTT9=
EXTT10=
EXTT11=
EXTT12=
EXTT13=
PLAYORDER=
